<svg width="1355" height="334" viewBox="0 0 1355 334" fill="none" xmlns="http://www.w3.org/2000/svg">
<g clip-path="url(#clip0_124_1485)">
<rect width="1355" height="334" fill="white"/>
<path d="M1354.71 123.192H1313.16V145.661H1352.39V175.264H1313.16V198.447H1354.71V228.05H1278.2V93.5887H1354.71V123.192Z" fill="#8AC8F8"/>
<path d="M1244.64 123.192V228.05H1209.69V123.192H1180.98V93.5887H1273.36V123.192H1244.64Z" fill="#8AC8F8"/>
<path d="M1041.86 228.05V93.5887H1076.81L1141.37 175.799V93.5887H1176.14V228.05H1141.37L1076.81 145.84V228.05H1041.86Z" fill="#8AC8F8"/>
<path d="M1032.71 123.192H991.157V145.661H1030.39V175.264H991.157V198.447H1032.71V228.05H956.204V93.5887H1032.71V123.192Z" fill="#8AC8F8"/>
<path d="M875.423 153.686H882.021C888.917 153.686 894.207 152.26 897.893 149.406C901.578 146.553 903.421 142.451 903.421 137.101C903.421 131.752 901.578 127.65 897.893 124.797C894.207 121.943 888.917 120.517 882.021 120.517H875.423V153.686ZM952.284 228.05H908.771L875.423 176.334V228.05H840.47V93.5887H894.861C902.351 93.5887 908.89 94.7181 914.478 96.9769C920.065 99.1169 924.642 102.089 928.209 105.893C931.895 109.698 934.629 114.097 936.412 119.09C938.315 124.083 939.266 129.433 939.266 135.14C939.266 145.364 936.769 153.686 931.776 160.106C926.901 166.407 919.649 170.687 910.019 172.946L952.284 228.05Z" fill="#8AC8F8"/>
<path d="M781.307 178.118L765.614 133.356L749.921 178.118H781.307ZM790.58 204.689H740.648L732.623 228.05H695.352L746.533 93.5887H784.695L835.876 228.05H798.605L790.58 204.689Z" fill="#8AC8F8"/>
<path d="M640.472 155.291H652.063C664.903 155.291 671.323 149.703 671.323 138.528C671.323 127.353 664.903 121.765 652.063 121.765H640.472V155.291ZM640.472 228.05H605.519V93.5887H661.158C676.257 93.5887 687.789 97.5119 695.755 105.359C703.839 113.205 707.881 124.262 707.881 138.528C707.881 152.795 703.839 163.851 695.755 171.698C687.789 179.544 676.257 183.468 661.158 183.468H640.472V228.05Z" fill="#8AC8F8"/>
<path d="M574.759 128.007C570.955 124.915 567.151 122.657 563.346 121.23C559.542 119.684 555.856 118.912 552.29 118.912C547.772 118.912 544.087 119.982 541.233 122.122C538.38 124.262 536.953 127.055 536.953 130.503C536.953 132.881 537.667 134.843 539.093 136.388C540.52 137.934 542.363 139.301 544.622 140.49C546.999 141.56 549.615 142.511 552.468 143.343C555.44 144.175 558.353 145.067 561.206 146.018C572.62 149.822 580.942 154.935 586.173 161.354C591.523 167.656 594.198 175.918 594.198 186.143C594.198 193.038 593.009 199.28 590.631 204.867C588.372 210.455 584.984 215.27 580.466 219.312C576.067 223.235 570.598 226.267 564.06 228.407C557.64 230.666 550.328 231.795 542.125 231.795C525.124 231.795 509.371 226.743 494.867 216.637L509.847 188.461C515.078 193.097 520.25 196.545 525.362 198.804C530.474 201.063 535.527 202.192 540.52 202.192C546.227 202.192 550.447 200.885 553.181 198.269C556.035 195.653 557.461 192.681 557.461 189.352C557.461 187.331 557.105 185.608 556.391 184.181C555.678 182.635 554.489 181.268 552.825 180.079C551.16 178.771 548.961 177.583 546.227 176.513C543.611 175.443 540.401 174.254 536.597 172.946C532.079 171.519 527.621 169.974 523.222 168.309C518.942 166.526 515.078 164.208 511.63 161.354C508.301 158.501 505.567 154.935 503.427 150.655C501.406 146.256 500.395 140.728 500.395 134.07C500.395 127.412 501.465 121.408 503.605 116.058C505.864 110.59 508.955 105.953 512.879 102.149C516.921 98.2253 521.795 95.1937 527.502 93.0537C533.327 90.9137 539.807 89.8437 546.94 89.8437C553.598 89.8437 560.552 90.7948 567.805 92.697C575.057 94.4803 582.012 97.1553 588.669 100.722L574.759 128.007Z" fill="#8AC8F8"/>
<path d="M349.147 228.05V93.5887H384.1L448.656 175.799V93.5887H483.43V228.05H448.656L384.1 145.84V228.05H349.147Z" fill="#8AC8F8"/>
<path d="M289.984 178.118L274.291 133.356L258.598 178.118H289.984ZM299.258 204.689H249.325L241.3 228.05H204.029L255.21 93.5887H293.373L344.554 228.05H307.283L299.258 204.689Z" fill="#8AC8F8"/>
<path d="M132.521 153.686H139.119C146.014 153.686 151.305 152.26 154.99 149.406C158.676 146.553 160.519 142.451 160.519 137.101C160.519 131.752 158.676 127.65 154.99 124.797C151.305 121.943 146.014 120.517 139.119 120.517H132.521V153.686ZM209.381 228.05H165.869L132.521 176.334V228.05H97.5679V93.5887H151.959C159.449 93.5887 165.988 94.7181 171.575 96.9769C177.163 99.1169 181.74 102.089 185.307 105.893C188.992 109.698 191.727 114.097 193.51 119.09C195.412 124.083 196.363 129.433 196.363 135.14C196.363 145.364 193.867 153.686 188.873 160.106C183.999 166.407 176.747 170.687 167.117 172.946L209.381 228.05Z" fill="#8AC8F8"/>
<path d="M64.0099 123.192V228.05H29.057V123.192H0.345703V93.5887H92.7212V123.192H64.0099Z" fill="#8AC8F8"/>
<path d="M604.084 10.0051C609.93 7.56913 616.751 10.0051 619.674 15.8514L756.089 308.168C758.524 314.014 756.088 320.835 750.242 323.758C744.396 326.194 737.575 323.758 734.652 317.912L598.238 25.5953C595.802 19.749 598.238 12.9283 604.084 10.0051ZM886.657 10.0051C892.503 12.9283 894.939 19.749 892.503 25.5953L782.298 272.889C779.375 278.736 772.554 281.172 766.708 278.736C760.861 275.812 758.425 268.992 760.861 263.145L871.066 15.8514C873.99 10.0051 880.81 7.56913 886.657 10.0051Z" fill="#1636C9"/>
<path d="M494.992 324.702C488.659 324.702 483.3 319.343 483.3 313.009V20.6927C483.3 14.3591 488.659 9 494.992 9C501.326 9 506.685 14.3591 506.685 20.6927V313.009C506.685 319.343 501.326 324.702 494.992 324.702Z" fill="#1636C9"/>
<path d="M103.784 9.99582C109.63 7.55985 116.451 9.99582 119.374 15.8422L255.789 308.159C258.225 314.005 255.789 320.826 249.942 323.749C244.096 326.185 237.275 323.749 234.352 317.903L97.9377 25.586C95.5017 19.7397 97.9377 12.919 103.784 9.99582ZM386.357 9.99582C392.203 12.919 394.639 19.7397 392.203 25.586L281.998 272.88C279.075 278.726 272.254 281.162 266.408 278.726C260.562 275.803 258.126 268.982 260.562 263.136L370.767 15.8422C373.69 9.99582 380.51 7.55985 386.357 9.99582Z" fill="#1636C9"/>
<path d="M932.6 169.5C932.6 111.067 962.946 59.7296 1008.68 30.376C1014.12 26.8859 1021.36 28.4652 1024.85 33.9033C1028.34 39.3414 1026.76 46.5793 1021.32 50.0693C982.008 75.301 956 119.367 956 169.5C956 247.814 1019.49 311.3 1097.8 311.3C1118.2 311.3 1137.57 306.998 1155.07 299.263C1160.98 296.65 1167.89 299.323 1170.5 305.233C1173.11 311.143 1170.44 318.053 1164.53 320.665C1144.11 329.692 1121.52 334.7 1097.8 334.7C1006.56 334.7 932.6 260.737 932.6 169.5ZM1243.6 165.5C1243.6 87.186 1180.11 23.7002 1101.8 23.7002C1087.75 23.7002 1074.19 25.7407 1061.4 29.5342C1055.21 31.3715 1048.7 27.8393 1046.86 21.6445C1045.02 15.4497 1048.55 8.93831 1054.75 7.10059C1069.67 2.67322 1085.47 0.299805 1101.8 0.299805C1193.04 0.299805 1267 74.2626 1267 165.5C1267 216.553 1243.83 262.205 1207.47 292.49C1202.5 296.626 1195.13 295.953 1190.99 290.988C1186.85 286.023 1187.53 278.645 1192.49 274.51C1223.74 248.48 1243.6 209.315 1243.6 165.5Z" fill="#1636C9"/>
</g>
<defs>
<clipPath id="clip0_124_1485">
<rect width="1355" height="334" fill="white"/>
</clipPath>
</defs>
</svg>
