<svg width="734" height="210" viewBox="0 0 734 210" fill="none" xmlns="http://www.w3.org/2000/svg">
<g clip-path="url(#clip0_132_2)">
<rect width="734" height="210" fill="#FFFFFE"/>
<path d="M318.072 6.05897C321.742 4.52963 326.024 6.05897 327.859 9.7294L413.503 193.251C415.032 196.921 413.503 201.203 409.832 203.039C406.162 204.568 401.88 203.039 400.045 199.368L314.401 15.8468C312.872 12.1763 314.401 7.89418 318.072 6.05897ZM495.476 6.05897C499.146 7.89418 500.675 12.1763 499.146 15.8468L429.958 171.102C428.122 174.773 423.84 176.302 420.17 174.773C416.499 172.937 414.97 168.655 416.499 164.985L485.688 9.7294C487.523 6.05897 491.805 4.52963 495.476 6.05897Z" fill="#1636C9"/>
<path d="M249.582 203.631C245.606 203.631 242.241 200.266 242.241 196.29V12.7688C242.241 8.7925 245.606 5.42795 249.582 5.42795C253.559 5.42795 256.923 8.7925 256.923 12.7688V196.29C256.923 200.266 253.559 203.631 249.582 203.631Z" fill="#1636C9"/>
<path d="M3.97496 6.05315C7.64539 4.5238 11.9276 6.05315 13.7628 9.72358L99.4061 193.245C100.935 196.915 99.4061 201.198 95.7356 203.033C92.0652 204.562 87.783 203.033 85.9478 199.362L0.304535 15.841C-1.22481 12.1705 0.304535 7.88835 3.97496 6.05315ZM181.379 6.05315C185.049 7.88835 186.579 12.1705 185.049 15.841L115.861 171.096C114.026 174.767 109.743 176.296 106.073 174.767C102.403 172.932 100.873 168.649 102.403 164.979L171.591 9.72358C173.426 6.05315 177.708 4.5238 181.379 6.05315Z" fill="#1636C9"/>
<path d="M524.319 106.193C524.319 69.5074 543.372 37.2769 572.086 18.8482C575.5 16.657 580.044 17.6485 582.236 21.0627C584.427 24.4768 583.435 29.0209 580.021 31.212C555.339 47.0529 539.011 74.7182 539.011 106.193C539.011 155.359 578.868 195.217 628.035 195.217C640.844 195.217 653.004 192.516 663.99 187.66C667.7 186.02 672.038 187.698 673.678 191.408C675.318 195.119 673.64 199.456 669.929 201.097C657.108 206.764 642.929 209.908 628.035 209.908C570.755 209.908 524.319 163.473 524.319 106.193ZM719.571 103.681C719.571 54.5145 679.713 14.657 630.546 14.657C621.724 14.657 613.213 15.9381 605.184 18.3197C601.295 19.4731 597.207 17.2556 596.053 13.3664C594.899 9.47719 597.117 5.38922 601.006 4.23547C610.377 1.45589 620.294 -0.0341797 630.546 -0.0341797C687.827 -0.0341797 734.262 46.4009 734.262 103.681C734.262 135.734 719.713 164.395 696.887 183.408C693.77 186.004 689.138 185.582 686.541 182.465C683.945 179.348 684.367 174.716 687.484 172.12C707.103 155.778 719.571 131.189 719.571 103.681Z" fill="#1636C9"/>
</g>
<defs>
<clipPath id="clip0_132_2">
<rect width="734" height="210" fill="white"/>
</clipPath>
</defs>
</svg>
