<svg width="60" height="36" viewBox="0 0 60 36" fill="none" xmlns="http://www.w3.org/2000/svg">
<path d="M3.75988e-06 17.5901C3.78957e-06 16.9108 0.574821 16.3359 1.25415 16.3359L51.9043 16.336C52.5836 16.336 53.1584 16.9108 53.1584 17.5901C53.1584 18.2695 52.5836 18.8443 51.9043 18.8443L1.25415 18.8442C0.574821 18.8442 3.73018e-06 18.2694 3.75988e-06 17.5901Z" fill="white"/>
<path d="M58.2285 15.7535C57.7445 16.2302 56.9316 16.2239 56.4549 15.7399L43.7778 2.6537C43.3011 2.16968 43.3073 1.35679 43.7913 0.880116C44.2754 0.403447 45.0882 0.409668 45.5649 0.893691L58.2421 13.9799C58.7188 14.4639 58.7125 15.2768 58.2285 15.7535Z" fill="white"/>
<path d="M58.2285 19.5033C57.7445 19.0267 56.9316 19.0329 56.4549 19.5169L43.7777 32.6031C43.3011 33.0871 43.3073 33.9 43.7913 34.3767C44.2753 34.8534 45.0882 34.8472 45.5649 34.3631L58.2421 21.2769C58.7187 20.7929 58.7125 19.98 58.2285 19.5033Z" fill="white"/>
</svg>
