<svg preserveAspectRatio="none" width="100%" height="100%" overflow="visible" style="display: block;" viewBox="0 0 40 30.2302" fill="none" xmlns="http://www.w3.org/2000/svg">
<g id="Group 4561">
<path id="Vector" d="M38.3457 2.00071C39.2418 2.82171 39.3053 4.27464 38.4843 5.17072L21.188 22.9858C20.3669 23.8819 18.914 23.9454 18.018 23.1244C17.1219 22.3034 17.0584 20.8505 17.8794 19.9544L35.1757 2.1393C35.9967 1.24323 37.4496 1.1797 38.3457 2.00071Z" fill="var(--fill-0, #1636C9)"/>
<path id="Vector_2" d="M14.6274 28.3619C13.6869 29.1316 12.2398 28.9872 11.47 28.0467L1.42107 16.8834C0.651323 15.943 0.795788 14.4959 1.73626 13.7261C2.67674 12.9564 4.12385 13.1008 4.8936 14.0413L14.9426 25.2045C15.7123 26.145 15.5679 27.5921 14.6274 28.3619Z" fill="var(--fill-0, #1636C9)"/>
</g>
</svg>
