<svg width="40" height="31" viewBox="0 0 40 31" fill="none" xmlns="http://www.w3.org/2000/svg">
<path d="M38.3457 2.00061C39.2417 2.82162 39.3053 4.27455 38.4842 5.17062L21.1879 22.9857C20.3669 23.8818 18.914 23.9453 18.0179 23.1243C17.1218 22.3033 17.0583 20.8504 17.8793 19.9543L35.1756 2.13921C35.9967 1.24313 37.4496 1.1796 38.3457 2.00061Z" fill="#1636C9"/>
<path d="M14.6274 28.3618C13.6869 29.1315 12.2398 28.9871 11.47 28.0466L1.42107 16.8834C0.651323 15.9429 0.795788 14.4958 1.73626 13.726C2.67674 12.9563 4.12385 13.1007 4.8936 14.0412L14.9426 25.2045C15.7123 26.1449 15.5679 27.5921 14.6274 28.3618Z" fill="#1636C9"/>
</svg>
