<svg preserveAspectRatio="none" width="100%" height="100%" overflow="visible" style="display: block;" viewBox="0 0 72.9677 73.1032" fill="none" xmlns="http://www.w3.org/2000/svg">
<g id="tidal-wave--nature-ocean-wave">
<path id="Vector" d="M2.25067 70.0159C4.01286 69.492 5.63622 68.5818 7.0027 67.3523C8.36919 66.1222 9.44459 64.6033 10.1507 62.9057C11.2366 65.4391 13.0933 67.5662 15.4568 68.9845C17.8204 70.4027 20.5708 71.0399 23.3172 70.8059C26.0637 71.0399 28.8141 70.4027 31.1777 68.9845C33.5413 67.5662 35.3979 65.4391 36.4839 62.9057C37.5698 65.4391 39.4265 67.5662 41.7901 68.9845C44.1537 70.4027 46.904 71.0399 49.6505 70.8059C52.397 71.0399 55.1475 70.4027 57.5107 68.9845C59.8745 67.5662 61.7312 65.4391 62.8169 62.9057C63.5231 64.6033 64.5988 66.1222 65.9648 67.3523C67.3314 68.5818 68.9547 69.492 70.7171 70.0159" stroke="var(--stroke-0, #0290FE)" stroke-width="4.5" stroke-linecap="round" stroke-linejoin="round"/>
<path id="Vector_2" d="M2.25059 48.8598C5.77496 47.8119 8.7384 45.1448 10.1506 41.7499C12.3529 46.8877 18.0505 49.6498 23.3172 49.6498C33.8505 49.6498 41.7505 41.7499 41.7505 33.8499C41.7505 23.3166 36.4838 12.7833 23.3172 18.0499C24.1949 12.7833 29.6371 2.25 44.3838 2.25C59.1302 2.25 68.0834 12.7833 70.717 18.0499" stroke="var(--stroke-0, #0290FE)" stroke-width="4.5" stroke-linecap="round" stroke-linejoin="round"/>
</g>
</svg>
