<svg preserveAspectRatio="none" width="100%" height="100%" overflow="visible" style="display: block;" viewBox="0 0 69.0109 69.0107" fill="none" xmlns="http://www.w3.org/2000/svg">
<g id="store-1--store-shop-shops-stores">
<path id="Vector" d="M7.21221 41.9488V64.2795C7.21221 64.9375 7.47363 65.5687 7.93895 66.0342C8.40422 66.4992 9.03534 66.7607 9.6934 66.7607H59.3172C59.9752 66.7607 60.6064 66.4992 61.0718 66.0342C61.5368 65.5687 61.7983 64.9375 61.7983 64.2795V41.9488" stroke="var(--stroke-0, #0290FE)" stroke-width="4.5" stroke-linecap="round" stroke-linejoin="round"/>
<path id="Vector_2" d="M39.4679 41.9488V66.7607" stroke="var(--stroke-0, #0290FE)" stroke-width="4.5" stroke-linecap="round" stroke-linejoin="round"/>
<path id="Vector_3" d="M7.21221 49.3923H39.4676" stroke="var(--stroke-0, #0290FE)" stroke-width="4.5" stroke-linecap="round" stroke-linejoin="round"/>
<path id="Vector_4" d="M2.25001 19.6183L9.69357 2.25H59.3173L66.7609 19.6183H2.25001Z" stroke="var(--stroke-0, #0290FE)" stroke-width="4.5" stroke-linecap="round" stroke-linejoin="round"/>
<path id="Vector_5" d="M23.489 19.6183V24.5807C23.489 27.2129 22.4434 29.7373 20.5821 31.5985C18.7208 33.4598 16.1964 34.5054 13.5642 34.5054H12.1748C9.54257 34.5054 7.01816 33.4598 5.15692 31.5985C3.29565 29.7373 2.25001 27.2129 2.25001 24.5807V19.6183" stroke="var(--stroke-0, #0290FE)" stroke-width="4.5" stroke-linecap="round" stroke-linejoin="round"/>
<path id="Vector_6" d="M45.6706 19.6183V24.5807C45.6706 27.2129 44.6249 29.7373 42.7637 31.5985C40.9024 33.4598 38.378 34.5054 35.7458 34.5054H33.2646C30.6324 34.5054 28.108 33.4598 26.2468 31.5985C24.3855 29.7373 23.3399 27.2129 23.3399 24.5807V19.6183" stroke="var(--stroke-0, #0290FE)" stroke-width="4.5" stroke-linecap="round" stroke-linejoin="round"/>
<path id="Vector_7" d="M66.7609 19.6183V24.5807C66.7609 27.2129 65.7153 29.7373 63.8539 31.5985C61.9925 33.4598 59.4682 34.5054 56.8361 34.5054H55.5955C52.9635 34.5054 50.4391 33.4598 48.5777 31.5985C46.7164 29.7373 45.6708 27.2129 45.6708 24.5807V19.6183" stroke="var(--stroke-0, #0290FE)" stroke-width="4.5" stroke-linecap="round" stroke-linejoin="round"/>
</g>
</svg>
