<svg width="359" height="360" viewBox="0 0 359 360" fill="none" xmlns="http://www.w3.org/2000/svg">
  <path d="M162.505 4.16656C176.679 -0.55794 218.02 -0.853508 231.604 42.5551C238.396 68.541 225.107 90.6881 213.296 99.8422" stroke="#E5F3FF" stroke-width="4.13412" stroke-linecap="round"/>
  <path d="M199.122 108.996C178.451 119.922 134.865 114.665 122.999 70.7554C115.14 41.6695 134.452 19.2272 147.445 11.8448" stroke="#E5F3FF" stroke-width="4.13412" stroke-linecap="round"/>
  <path d="M162.505 248.166C176.679 243.442 218.021 243.146 231.604 286.555C238.396 312.541 225.108 334.688 213.296 343.842" stroke="#E5F3FF" stroke-width="4.13412" stroke-linecap="round"/>
  <path d="M199.122 352.996C178.452 363.922 134.865 358.664 123 314.755C115.14 285.669 134.453 263.227 147.446 255.845" stroke="#E5F3FF" stroke-width="4.13412" stroke-linecap="round"/>
  <path d="M285.057 125.227C299.231 120.502 340.572 120.207 354.156 163.615C360.947 189.601 347.659 211.748 335.847 220.902" stroke="#E5F3FF" stroke-width="4.13412" stroke-linecap="round"/>
  <path d="M321.673 230.056C301.002 240.982 257.416 235.725 245.551 191.815C237.691 162.729 257.003 140.287 269.996 132.905" stroke="#E5F3FF" stroke-width="4.13412" stroke-linecap="round"/>
  <path d="M43.5054 123.166C57.6795 118.442 99.0207 118.146 112.604 161.555C119.396 187.54 106.108 209.688 94.296 218.842" stroke="#E5F3FF" stroke-width="4.13412" stroke-linecap="round"/>
  <path d="M80.1222 227.996C59.4515 238.922 15.8652 233.664 3.99995 189.755C-3.85968 160.669 15.4527 138.226 28.4456 130.844" stroke="#E5F3FF" stroke-width="4.13412" stroke-linecap="round"/>
  <path d="M108.548 81.0225C95.2896 89.7736 83.8758 101.211 75.0372 114.586" stroke="#E5F3FF" stroke-width="4.13412" stroke-linecap="round"/>
  <path d="M238.722 77.1821C252.324 85.9333 264.034 97.3711 273.102 110.746" stroke="#E5F3FF" stroke-width="4.33282" stroke-linecap="round"/>
  <path d="M110.824 283.566C97.566 274.815 86.1521 263.377 77.3135 250.002" stroke="#E5F3FF" stroke-width="4.13412" stroke-linecap="round"/>
  <path d="M243.536 280.673C257.139 271.922 268.849 260.484 277.917 247.109" stroke="#E5F3FF" stroke-width="4.13412" stroke-linecap="round"/>
</svg>
