<svg preserveAspectRatio="none" width="100%" height="100%" overflow="visible" style="display: block;" viewBox="0 0 20.0003 19.9976" fill="none" xmlns="http://www.w3.org/2000/svg">
<g id="facebook-1--media-facebook-social">
<path id="Subtract" d="M12.447 19.9759C12.4501 19.9464 12.4517 19.9164 12.4517 19.8861V12.6844H14.9135C15.3082 12.6844 15.6635 12.4245 15.7212 12.0341C15.8166 11.3882 15.7761 10.8008 15.7143 10.3832C15.6577 9.99973 15.316 9.74733 14.9284 9.74733H12.4517C12.4517 7.52797 12.8211 7.20503 14.9028 7.16463C15.3023 7.1569 15.6608 6.89316 15.7188 6.49787C15.8163 5.83341 15.7774 5.25287 15.7163 4.84447C15.6598 4.46722 15.3215 4.2213 14.9401 4.22463C11.2607 4.25672 9.16515 4.69175 9.16515 9.74733H7.25899C6.88854 9.74733 6.55964 9.97951 6.5036 10.3457C6.44324 10.7402 6.40675 11.3121 6.50751 12.0077C6.56573 12.4095 6.92716 12.6844 7.33321 12.6844H9.16515V19.9976C6.31622 19.9788 4.27704 19.8664 2.94924 19.7585C1.48795 19.6398 0.360458 18.5123 0.241732 17.051C0.123593 15.597 0 13.2897 0 10.0001C0 6.71058 0.123593 4.4033 0.241732 2.94924C0.360458 1.48795 1.48795 0.360458 2.94924 0.241732C4.4033 0.123588 6.71058 0 10.0001 0C13.2897 0 15.597 0.123593 17.051 0.241732C18.5123 0.360458 19.6398 1.48795 19.7585 2.94924C19.8767 4.4033 20.0003 6.71058 20.0003 10.0001C20.0003 13.2897 19.8767 15.597 19.7585 17.051C19.6398 18.5123 18.5123 19.6398 17.051 19.7585C15.9886 19.8448 14.4707 19.9341 12.447 19.9759Z" fill="var(--fill-0, #0290FE)"/>
</g>
</svg>
