<svg preserveAspectRatio="none" width="100%" height="100%" overflow="visible" style="display: block;" viewBox="0 0 1567 447.869" fill="none" xmlns="http://www.w3.org/2000/svg">
<g id="Group 285">
<path id="Vector" d="M679.149 13.0005C686.979 9.73796 696.114 13.0005 700.029 20.8306L882.732 412.336C885.994 420.165 882.731 429.301 874.901 433.216C867.072 436.478 857.936 433.216 854.021 425.386L671.32 33.8808C668.057 26.0507 671.32 16.9156 679.149 13.0005ZM1057.6 13.0005C1065.43 16.9156 1068.7 26.0507 1065.43 33.8808L917.835 365.086C913.92 372.917 904.784 376.18 896.955 372.917C889.124 369.001 885.861 359.867 889.124 352.036L1036.72 20.8306C1040.64 13.0005 1049.77 9.73796 1057.6 13.0005Z" fill="var(--fill-0, #A7D8FF)"/>
<path id="Vector_2" d="M533.04 434.478C524.558 434.478 517.381 427.3 517.381 418.817V27.3124C517.381 18.8297 524.558 11.6522 533.04 11.6522C541.523 11.6522 548.701 18.8297 548.701 27.3124V418.817C548.701 427.3 541.523 434.478 533.04 434.478Z" fill="var(--fill-0, #A7D8FF)"/>
<path id="Vector_3" d="M9.08598 12.9879C16.9156 9.72531 26.0511 12.9879 29.966 20.818L212.669 412.323C215.932 420.153 212.669 429.288 204.838 433.203C197.008 436.466 187.873 433.203 183.958 425.374L1.25592 33.8681C-2.00666 26.038 1.25592 16.9029 9.08598 12.9879ZM387.541 12.9879C395.371 16.9029 398.634 26.038 395.371 33.8681L247.771 365.074C243.857 372.903 234.721 376.166 226.891 372.903C219.062 368.988 215.799 359.853 219.062 352.023L366.661 20.818C370.576 12.9879 379.71 9.72531 387.541 12.9879Z" fill="var(--fill-0, #A7D8FF)"/>
<path id="Vector_4" d="M1119.13 226.613C1119.13 148.353 1159.77 79.5955 1221.03 40.2816C1228.31 35.6073 1238.01 37.7225 1242.68 45.0058C1247.36 52.2892 1245.24 61.983 1237.96 66.6572C1185.3 100.451 1150.47 159.469 1150.47 226.613C1150.47 331.5 1235.51 416.528 1340.39 416.528C1367.71 416.528 1393.65 410.767 1417.09 400.407C1425.01 396.907 1434.26 400.487 1437.76 408.403C1441.25 416.318 1437.68 425.573 1429.76 429.071C1402.41 441.161 1372.16 447.869 1340.39 447.869C1218.19 447.869 1119.13 348.808 1119.13 226.613ZM1535.66 221.256C1535.66 116.368 1450.63 31.3406 1345.74 31.3406C1326.93 31.3406 1308.77 34.0735 1291.64 39.1542C1283.35 41.6149 1274.63 36.8842 1272.16 28.5874C1269.7 20.2906 1274.43 11.5697 1282.73 9.10844C1302.71 3.17878 1323.87 1.60861e-05 1345.74 1.60861e-05C1467.94 1.60861e-05 1567 99.0598 1567 221.256C1567 289.632 1535.97 350.775 1487.27 391.336C1480.61 396.875 1470.74 395.974 1465.2 389.324C1459.65 382.674 1460.56 372.793 1467.21 367.255C1509.06 332.392 1535.66 279.938 1535.66 221.256Z" fill="var(--fill-0, #A7D8FF)"/>
</g>
</svg>
