<svg preserveAspectRatio="none" width="100%" height="100%" overflow="visible" style="display: block;" viewBox="0 0 64 64" fill="none" xmlns="http://www.w3.org/2000/svg">
<g id="Group 4549">
<circle id="Ellipse 239" cx="32" cy="32" r="31.5" fill="var(--fill-0, white)" stroke="var(--stroke-0, #707899)"/>
<g id="Group 272" transform="translate(64 0) scale(-1 1)">
<path id="Vector" d="M41.4375 29.7534C40.9535 30.2301 40.1406 30.2238 39.6639 29.7398L26.9867 16.6536C26.5101 16.1696 26.5163 15.3567 27.0003 14.88C27.4843 14.4033 28.2972 14.4096 28.7739 14.8936L41.4511 27.9798C41.9277 28.4638 41.9215 29.2767 41.4375 29.7534Z" fill="var(--fill-0, #707899)"/>
<path id="Vector_2" d="M41.4375 33.5032C40.9535 33.0266 40.1406 33.0328 39.6639 33.5168L26.9867 46.603C26.5101 47.087 26.5163 47.8999 27.0003 48.3766C27.4843 48.8533 28.2972 48.847 28.7739 48.363L41.4511 35.2768C41.9277 34.7928 41.9215 33.9799 41.4375 33.5032Z" fill="var(--fill-0, #707899)"/>
</g>
</g>
</svg>
