<svg preserveAspectRatio="none" width="100%" height="100%" overflow="visible" style="display: block;" viewBox="0 0 19.8 19.8" fill="none" xmlns="http://www.w3.org/2000/svg">
<g id="instagram">
<g id="Group 4546">
<path id="Vector" d="M15.1042 5.07569C14.8972 5.07569 14.7294 4.9079 14.7294 4.70092C14.7294 4.49394 14.8972 4.32615 15.1042 4.32615" stroke="var(--stroke-0, #0290FE)" stroke-width="1.5" stroke-linecap="round" stroke-linejoin="round"/>
<path id="Vector_2" d="M15.1041 5.07557C15.3111 5.07557 15.4788 4.90778 15.4788 4.7008C15.4788 4.49382 15.3111 4.32603 15.1041 4.32603" stroke="var(--stroke-0, #0290FE)" stroke-width="1.5" stroke-linecap="round" stroke-linejoin="round"/>
</g>
<path id="Rectangle 2" d="M0.9 4.75714C0.9 2.62691 2.6269 0.9 4.75714 0.9H15.0429C17.1731 0.9 18.9 2.62691 18.9 4.75714V15.0429C18.9 17.1731 17.1731 18.9 15.0429 18.9H4.75714C2.6269 18.9 0.9 17.1731 0.9 15.0429V4.75714Z" stroke="var(--stroke-0, #0290FE)" stroke-width="1.8" stroke-linecap="round" stroke-linejoin="round"/>
<path id="Ellipse 11" d="M6.07865 9.90129C6.07865 10.9151 6.48139 11.8874 7.19827 12.6043C7.91516 13.3212 8.88746 13.7239 9.90129 13.7239C10.9151 13.7239 11.8874 13.3212 12.6043 12.6043C13.3212 11.8874 13.7239 10.9151 13.7239 9.90129C13.7239 8.88746 13.3212 7.91516 12.6043 7.19827C11.8874 6.48139 10.9151 6.07865 9.90129 6.07865C8.88746 6.07865 7.91516 6.48139 7.19827 7.19827C6.48139 7.91516 6.07865 8.88746 6.07865 9.90129Z" stroke="var(--stroke-0, #0290FE)" stroke-width="1.8" stroke-linecap="round" stroke-linejoin="round"/>
</g>
</svg>
