<svg preserveAspectRatio="none" width="100%" height="100%" overflow="visible" style="display: block;" viewBox="0 0 271.137 66.9454" fill="none" xmlns="http://www.w3.org/2000/svg">
<g id="Group">
<path id="Vector" d="M271.137 24.6024H262.819V29.1006H270.673V35.027H262.819V39.6681H271.137V45.5945H255.82V18.676H271.137V24.6024Z" fill="var(--fill-0, #8AC8F8)"/>
<path id="Vector_2" d="M249.102 24.6024V45.5945H242.105V24.6024H236.357V18.676H254.851V24.6024H249.102Z" fill="var(--fill-0, #8AC8F8)"/>
<path id="Vector_3" d="M208.506 45.5945V18.676H215.503L228.428 35.1341V18.676H235.389V45.5945H228.428L215.503 29.1365V45.5945H208.506Z" fill="var(--fill-0, #8AC8F8)"/>
<path id="Vector_4" d="M206.674 24.6024H198.355V29.1006H206.21V35.027H198.355V39.6681H206.674V45.5945H191.358V18.676H206.674V24.6024Z" fill="var(--fill-0, #8AC8F8)"/>
<path id="Vector_5" d="M175.186 30.7072H176.507C177.888 30.7072 178.947 30.4217 179.685 29.8504C180.422 29.2792 180.791 28.458 180.791 27.387C180.791 26.3161 180.422 25.4949 179.685 24.9238C178.947 24.3524 177.888 24.0669 176.507 24.0669H175.186V30.7072ZM190.573 45.5945H181.862L175.186 35.2412V45.5945H168.189V18.676H179.078C180.577 18.676 181.886 18.9021 183.005 19.3543C184.123 19.7827 185.04 20.3777 185.754 21.1393C186.492 21.901 187.039 22.7817 187.396 23.7812C187.777 24.7808 187.967 25.8519 187.967 26.9944C187.967 29.0412 187.467 30.7072 186.468 31.9924C185.492 33.2539 184.04 34.1107 182.112 34.563L190.573 45.5945Z" fill="var(--fill-0, #8AC8F8)"/>
<path id="Vector_6" d="M156.345 35.5984L153.203 26.6372L150.062 35.5984H156.345ZM158.201 40.9178H148.205L146.599 45.5945H139.137L149.383 18.676H157.023L167.27 45.5945H159.808L158.201 40.9178Z" fill="var(--fill-0, #8AC8F8)"/>
<path id="Vector_7" d="M128.151 31.0285H130.471C133.042 31.0285 134.327 29.9098 134.327 27.6726C134.327 25.4355 133.042 24.3168 130.471 24.3168H128.151V31.0285ZM128.151 45.5945H121.153V18.676H132.292C135.315 18.676 137.623 19.4614 139.218 21.0324C140.836 22.6031 141.646 24.8166 141.646 27.6726C141.646 30.5288 140.836 32.7422 139.218 34.3131C137.623 35.8838 135.315 36.6694 132.292 36.6694H128.151V45.5945Z" fill="var(--fill-0, #8AC8F8)"/>
<path id="Vector_8" d="M114.995 25.5666C114.233 24.9476 113.472 24.4956 112.71 24.2099C111.948 23.9004 111.211 23.7458 110.497 23.7458C109.592 23.7458 108.854 23.96 108.283 24.3884C107.712 24.8169 107.426 25.376 107.426 26.0663C107.426 26.5424 107.569 26.9351 107.855 27.2444C108.14 27.5539 108.509 27.8276 108.962 28.0656C109.437 28.2798 109.961 28.4702 110.532 28.6368C111.127 28.8034 111.71 28.9819 112.282 29.1723C114.567 29.9339 116.233 30.9575 117.28 32.2425C118.351 33.5041 118.886 35.1582 118.886 37.2052C118.886 38.5855 118.648 39.8351 118.172 40.9536C117.72 42.0723 117.042 43.0362 116.137 43.8454C115.257 44.6308 114.162 45.2378 112.853 45.6662C111.568 46.1184 110.104 46.3445 108.462 46.3445C105.058 46.3445 101.904 45.3331 99.0009 43.3099L102 37.6692C103.047 38.5973 104.082 39.2876 105.106 39.7398C106.129 40.1921 107.141 40.4181 108.14 40.4181C109.283 40.4181 110.128 40.1564 110.675 39.6327C111.246 39.109 111.532 38.514 111.532 37.8476C111.532 37.443 111.461 37.098 111.318 36.8124C111.175 36.5029 110.937 36.2292 110.604 35.9912C110.27 35.7293 109.83 35.4915 109.283 35.2773C108.759 35.0631 108.117 34.825 107.355 34.5632C106.451 34.2775 105.558 33.9682 104.677 33.6349C103.821 33.2779 103.047 32.8139 102.357 32.2425C101.69 31.6714 101.143 30.9575 100.715 30.1006C100.31 29.22 100.108 28.1133 100.108 26.7804C100.108 25.4475 100.322 24.2455 100.75 23.1745C101.202 22.0798 101.821 21.1515 102.607 20.3899C103.416 19.6044 104.392 18.9975 105.534 18.5691C106.7 18.1407 107.998 17.9265 109.426 17.9265C110.759 17.9265 112.151 18.1169 113.603 18.4977C115.055 18.8547 116.447 19.3902 117.78 20.1043L114.995 25.5666Z" fill="var(--fill-0, #8AC8F8)"/>
<path id="Vector_9" d="M69.8282 45.5945V18.676H76.8256L89.7494 35.1341V18.676H96.711V45.5945H89.7494L76.8256 29.1365V45.5945H69.8282Z" fill="var(--fill-0, #8AC8F8)"/>
<path id="Vector_10" d="M57.9842 35.5984L54.8425 26.6372L51.7008 35.5984H57.9842ZM59.8408 40.9178H49.8444L48.2378 45.5945H40.7764L51.0226 18.676H58.6626L68.9088 45.5945H61.4473L59.8408 40.9178Z" fill="var(--fill-0, #8AC8F8)"/>
<path id="Vector_11" d="M26.4609 30.7072H27.7818C29.1622 30.7072 30.2214 30.4217 30.9591 29.8504C31.6971 29.2792 32.066 28.458 32.066 27.387C32.066 26.3161 31.6971 25.4949 30.9591 24.9238C30.2214 24.3524 29.1622 24.0669 27.7818 24.0669H26.4609V30.7072ZM41.848 45.5945H33.1371L26.4609 35.2412V45.5945H19.4635V18.676H30.3523C31.8518 18.676 33.1609 18.9021 34.2794 19.3543C35.3981 19.7827 36.3144 20.3777 37.0285 21.1393C37.7662 21.901 38.3137 22.7817 38.6707 23.7812C39.0514 24.7808 39.2418 25.8519 39.2418 26.9944C39.2418 29.0412 38.7421 30.7072 37.7424 31.9924C36.7666 33.2539 35.3148 34.1107 33.3869 34.563L41.848 45.5945Z" fill="var(--fill-0, #8AC8F8)"/>
<path id="Vector_12" d="M12.7453 24.6024V45.5945H5.74787V24.6024H0V18.676H18.4931V24.6024H12.7453Z" fill="var(--fill-0, #8AC8F8)"/>
<path id="Vector_13" d="M120.866 1.9431C122.036 1.45543 123.402 1.9431 123.987 3.1135L151.297 61.6339C151.784 62.8043 151.296 64.1698 150.126 64.755C148.956 65.2426 147.59 64.755 147.005 63.5846L119.695 5.06418C119.208 3.89378 119.695 2.52831 120.866 1.9431ZM177.436 1.9431C178.606 2.52831 179.094 3.89378 178.606 5.06418L156.543 54.5712C155.958 55.7418 154.593 56.2294 153.422 55.7418C152.252 55.1564 151.764 53.7911 152.252 52.6205L174.314 3.1135C174.9 1.9431 176.265 1.45543 177.436 1.9431Z" fill="var(--fill-0, #1636C9)"/>
<path id="Vector_14" d="M99.0262 64.9437C97.7583 64.9437 96.6855 63.8709 96.6855 62.6028V4.08246C96.6855 2.8145 97.7583 1.74164 99.0262 1.74164C100.294 1.74164 101.367 2.8145 101.367 4.08246V62.6028C101.367 63.8709 100.294 64.9437 99.0262 64.9437Z" fill="var(--fill-0, #1636C9)"/>
<path id="Vector_15" d="M20.7081 1.94127C21.8784 1.4536 23.244 1.94127 23.8292 3.11168L51.1388 61.6321C51.6265 62.8025 51.1388 64.168 49.9683 64.7532C48.7979 65.2409 47.4324 64.7532 46.8472 63.5828L19.5377 5.06235C19.05 3.89195 19.5377 2.52647 20.7081 1.94127ZM77.2779 1.94127C78.4482 2.52647 78.9359 3.89195 78.4482 5.06235L56.3857 54.5694C55.8005 55.7398 54.435 56.2275 53.2647 55.7398C52.0943 55.1546 51.6067 53.7891 52.0943 52.6187L74.1569 3.11168C74.742 1.94127 76.1074 1.4536 77.2779 1.94127Z" fill="var(--fill-0, #1636C9)"/>
<path id="Vector_16" d="M186.633 33.8731C186.633 22.1751 192.708 11.8976 201.864 6.02111C202.953 5.32241 204.402 5.63858 205.101 6.72726C205.8 7.81595 205.483 9.26494 204.394 9.96362C196.524 15.0149 191.318 23.8367 191.318 33.8731C191.318 49.5512 204.028 62.2608 219.705 62.2608C223.789 62.2608 227.667 61.3995 231.17 59.851C232.354 59.3279 233.737 59.863 234.259 61.0462C234.782 62.2294 234.247 63.6127 233.064 64.1356C228.976 65.9428 224.454 66.9454 219.705 66.9454C201.439 66.9454 186.633 52.1383 186.633 33.8731ZM248.894 33.0723C248.894 17.3942 236.183 4.68465 220.506 4.68465C217.693 4.68465 214.979 5.09315 212.418 5.85259C211.179 6.22041 209.876 5.51328 209.507 4.27311C209.139 3.03294 209.846 1.72939 211.087 1.36149C214.074 0.475147 217.237 0 220.506 0C238.772 0 253.578 14.807 253.578 33.0723C253.578 43.2929 248.94 52.4322 241.661 58.4951C240.666 59.3231 239.19 59.1884 238.361 58.1944C237.533 57.2004 237.669 55.7234 238.662 54.8956C244.918 49.6845 248.894 41.8439 248.894 33.0723Z" fill="var(--fill-0, #1636C9)"/>
</g>
</svg>
