<svg preserveAspectRatio="none" width="100%" height="100%" overflow="visible" style="display: block;" viewBox="0 0 269.421 317.438" fill="none" xmlns="http://www.w3.org/2000/svg">
<g id="Group 181">
<rect id="Rectangle 359" x="0.0000840508" y="0.0000242131" width="269.421" height="7.3814" rx="3.6907" fill="var(--fill-0, #A7D8FF)"/>
<path id="Rectangle 357" d="M3.69073 16.6082C5.72905 16.6082 7.38143 18.2606 7.38143 20.2989L7.38147 296.201C7.38147 298.239 5.72909 299.891 3.69077 299.891C1.65246 299.891 0.0000764778 298.239 0.0000762015 296.201L0.0000387944 20.2989C0.0000385181 18.2606 1.65242 16.6082 3.69073 16.6082Z" fill="var(--fill-0, #A7D8FF)"/>
<path id="Rectangle 360" d="M265.73 16.6082C267.769 16.6082 269.421 18.2606 269.421 20.2989L269.421 296.201C269.421 298.239 267.769 299.891 265.73 299.891C263.692 299.891 262.04 298.239 262.04 296.201L262.04 20.2989C262.04 18.2606 263.692 16.6082 265.73 16.6082Z" fill="var(--fill-0, #A7D8FF)"/>
<rect id="Rectangle 345" x="0.000109899" y="310.056" width="269.421" height="7.3814" rx="3.6907" fill="var(--fill-0, #A7D8FF)"/>
</g>
</svg>
