<svg preserveAspectRatio="none" width="100%" height="100%" overflow="visible" style="display: block;" viewBox="0 0 63.9906 63.9802" fill="none" xmlns="http://www.w3.org/2000/svg">
<g id="no-poverty">
<path id="Ellipse 227" d="M43.1682 16.5019C41.5476 14.8813 40.6371 12.6833 40.6371 10.3915C40.6371 8.09961 41.5476 5.90162 43.1682 4.28103C44.7887 2.66044 46.9867 1.75 49.2786 1.75C51.5705 1.75 53.7685 2.66044 55.389 4.28103C57.0096 5.90162 57.9201 8.09961 57.9201 10.3915C57.9201 12.6833 57.0096 14.8813 55.389 16.5019C53.7685 18.1225 51.5705 19.033 49.2786 19.033C46.9867 19.033 44.7887 18.1225 43.1682 16.5019Z" stroke="var(--stroke-0, #1636C9)" stroke-width="3.5" stroke-linecap="round" stroke-linejoin="round"/>
<path id="Ellipse 228" d="M62.2406 40.6378V36.317C62.2406 29.158 56.4373 23.3545 49.2783 23.3545C44.3965 23.3545 40.1451 26.0531 37.9343 30.0398" stroke="var(--stroke-0, #1636C9)" stroke-width="3.5" stroke-linecap="round" stroke-linejoin="round"/>
<path id="Ellipse 227_2" d="M8.60244 16.5019C6.98185 14.8813 6.07141 12.6833 6.07141 10.3915C6.07141 8.09961 6.98185 5.90162 8.60244 4.28103C10.223 2.66044 12.421 1.75 14.7129 1.75C17.0047 1.75 19.2027 2.66044 20.8233 4.28103C22.4439 5.90162 23.3544 8.09961 23.3544 10.3915C23.3544 12.6833 22.4439 14.8813 20.8233 16.5019C19.2027 18.1225 17.0047 19.033 14.7129 19.033C12.421 19.033 10.223 18.1225 8.60244 16.5019Z" stroke="var(--stroke-0, #1636C9)" stroke-width="3.5" stroke-linecap="round" stroke-linejoin="round"/>
<path id="Ellipse 228_2" d="M1.75 40.6378V36.317C1.75 29.158 7.55351 23.3545 14.7125 23.3545C19.5942 23.3545 23.8456 26.0531 26.0564 30.0398" stroke="var(--stroke-0, #1636C9)" stroke-width="3.5" stroke-linecap="round" stroke-linejoin="round"/>
<path id="Ellipse 227_3" d="M25.8895 42.4167C24.2689 40.7962 23.3584 38.5982 23.3584 36.3063C23.3584 34.0144 24.2689 31.8164 25.8895 30.1959C27.5101 28.5753 29.708 27.6648 31.9999 27.6648C34.2918 27.6648 36.4898 28.5753 38.1104 30.1959C39.7309 31.8164 40.6414 34.0144 40.6414 36.3063C40.6414 38.5982 39.7309 40.7962 38.1104 42.4167C36.4898 44.0373 34.2918 44.9478 31.9999 44.9478C29.708 44.9478 27.5101 44.0373 25.8895 42.4167Z" stroke="var(--stroke-0, #1636C9)" stroke-width="3.5" stroke-linecap="round" stroke-linejoin="round"/>
<path id="Ellipse 228_3" d="M44.9641 62.2302C44.9641 55.0713 39.1605 49.268 32.0016 49.268C24.8426 49.268 19.0391 55.0713 19.0391 62.2302" stroke="var(--stroke-0, #1636C9)" stroke-width="3.5" stroke-linecap="round" stroke-linejoin="round"/>
</g>
</svg>
