<svg preserveAspectRatio="none" width="100%" height="100%" overflow="visible" style="display: block;" viewBox="0 0 65.9107 65.9107" fill="none" xmlns="http://www.w3.org/2000/svg">
<g id="Group 303">
<path id="Vector" d="M6.55082 8.95129C5.27755 8.95129 4.05646 9.45711 3.15613 10.3574C2.2558 11.2578 1.75 12.4788 1.75 13.7521V59.3599C1.75 60.6331 2.2558 61.8544 3.15613 62.7546C4.05646 63.6547 5.27755 64.1607 6.55082 64.1607H14.25M49.7582 8.95129H59.3598C60.633 8.95129 61.8543 9.45711 62.7545 10.3574C63.6546 11.2578 64.1607 12.4788 64.1607 13.7521V59.3599C64.1607 60.6331 63.6546 61.8544 62.7545 62.7546C61.8543 63.6547 60.633 64.1607 59.3598 64.1607H23.25" stroke="var(--stroke-0, #1636C9)" stroke-width="3.5" stroke-linecap="round" stroke-linejoin="round"/>
<path id="Vector_2" d="M1.75 25.7542H64.1607" stroke="var(--stroke-0, #1636C9)" stroke-width="3.5" stroke-linecap="round" stroke-linejoin="round"/>
<path id="Vector_3" d="M16.1526 1.75V16.1525" stroke="var(--stroke-0, #1636C9)" stroke-width="3.5" stroke-linecap="round" stroke-linejoin="round"/>
<path id="Vector_4" d="M49.7581 1.75V16.1525" stroke="var(--stroke-0, #1636C9)" stroke-width="3.5" stroke-linecap="round" stroke-linejoin="round"/>
<path id="Vector_5" d="M16.1526 8.95129H40.1567" stroke="var(--stroke-0, #1636C9)" stroke-width="3.5" stroke-linecap="round" stroke-linejoin="round"/>
<path id="Vector_3_2" d="M21.75 45.9521L31.2045 53.4521L47.75 33.4521" stroke="var(--stroke-0, #1636C9)" stroke-width="3.5" stroke-linecap="round" stroke-linejoin="round"/>
</g>
</svg>
