<svg preserveAspectRatio="none" width="100%" height="100%" overflow="visible" style="display: block;" viewBox="0 0 61.1096 65.9107" fill="none" xmlns="http://www.w3.org/2000/svg">
<g id="Group 304">
<path id="Vector" d="M47.8377 30.5549C54.2011 30.5549 59.3596 24.1067 59.3596 16.1525C59.3596 8.19822 54.2011 1.75 47.8377 1.75C41.4743 1.75 36.3157 8.19822 36.3157 16.1525C36.3157 24.1067 41.4743 30.5549 47.8377 30.5549Z" stroke="var(--stroke-0, #1636C9)" stroke-width="3.5" stroke-linecap="round" stroke-linejoin="round"/>
<path id="Vector_2" d="M47.8384 30.5549V64.1607" stroke="var(--stroke-0, #1636C9)" stroke-width="3.5" stroke-linecap="round" stroke-linejoin="round"/>
<path id="Vector_3" d="M13.7519 1.75V64.1607" stroke="var(--stroke-0, #1636C9)" stroke-width="3.5" stroke-linecap="round" stroke-linejoin="round"/>
<path id="Vector_4" d="M25.7541 1.75V13.752C25.7541 15.3282 25.4437 16.8889 24.8405 18.345C24.2373 19.8012 23.3533 21.1243 22.2388 22.2388C21.1243 23.3533 19.8012 24.2373 18.345 24.8405C16.8889 25.4437 15.3282 25.7541 13.752 25.7541C10.5689 25.7541 7.51612 24.4896 5.2653 22.2388C3.01449 19.988 1.75 16.9352 1.75 13.752V1.75" stroke="var(--stroke-0, #1636C9)" stroke-width="3.5" stroke-linecap="round" stroke-linejoin="round"/>
</g>
</svg>
