<svg preserveAspectRatio="none" width="100%" height="100%" overflow="visible" style="display: block;" viewBox="0 0 34 34" fill="none" xmlns="http://www.w3.org/2000/svg">
<path d="M17 0C7.61222 0 0 7.61222 0 17C0 20.0883 0.826389 22.9878 2.26194 25.4811L0 34L8.83056 31.9128C11.2578 33.2444 14.0392 34 17 34C26.3878 34 34 26.3878 34 17C34 7.61222 26.3878 0 17 0ZM17 30.9542C14.1572 30.9542 11.5175 30.1042 9.31222 28.645L4.09417 29.9767L5.55806 24.99C3.97139 22.7281 3.04583 19.9703 3.04583 17C3.04583 9.29333 9.29333 3.04583 17 3.04583C24.7067 3.04583 30.9542 9.29333 30.9542 17C30.9542 24.7067 24.7067 30.9542 17 30.9542Z" fill="var(--fill-0, #25D366)"/>
<svg x="8.605" y="8.605" width="16.7901" height="16.7901" overflow="visible" viewBox="0 0 16.7901 16.7901" fill="none" xmlns="http://www.w3.org/2000/svg">
<path d="M12.3824 10.6364L16.4954 12.5772C16.6843 12.6669 16.8071 12.8558 16.7882 13.0636C16.7457 13.6066 16.5285 14.688 15.5557 15.6608C12.8121 18.4044 7.88209 15.3019 7.68376 15.1791C6.47015 14.5275 5.31792 13.6586 4.22709 12.563C3.13626 11.4722 2.26265 10.32 1.61098 9.10636C1.4882 8.90802 -1.6143 3.97802 1.12931 1.23441C2.10209 0.261634 3.1882 0.0444119 3.72654 0.0019119C3.93431 -0.016977 4.12792 0.105801 4.21292 0.29469L6.15376 4.40775C6.24348 4.60136 6.2057 4.83274 6.05459 4.98386L4.60959 6.42886C4.29792 6.74052 4.20348 7.22691 4.4207 7.61413C4.94959 8.55858 5.65792 9.46997 6.47959 10.3105C7.32015 11.1322 8.22681 11.8405 9.17598 12.3694C9.5632 12.5866 10.0496 12.4922 10.3613 12.1805L11.8063 10.7355C11.9526 10.5844 12.184 10.5466 12.3824 10.6364Z" fill="var(--fill-0, #25D366)"/>
</svg>
</svg>
