<svg preserveAspectRatio="none" width="100%" height="100%" overflow="visible" style="display: block;" viewBox="0 0 29.5549 30.0239" fill="none" xmlns="http://www.w3.org/2000/svg">
<g id="Group 4558">
<path id="Vector" d="M1.79867 1.58223C2.66894 0.725185 4.13052 0.736376 4.98756 1.60664L27.7809 25.1354C28.6379 26.0057 28.6268 27.4672 27.7565 28.3243C26.8862 29.1813 25.4247 29.1701 24.5676 28.2999L1.77427 4.77111C0.917232 3.90085 0.92841 2.43927 1.79867 1.58223Z" fill="var(--fill-0, #9D9D9D)"/>
<path id="Vector_2" d="M18.0564 11.9182C18.9267 12.7752 20.3883 12.764 21.2453 11.8938L27.781 4.97274C28.6381 4.10248 28.6269 2.64091 27.7566 1.78386C26.8864 0.926822 25.4248 0.938006 24.5678 1.80827L18.032 8.7293C17.175 9.59956 17.1862 11.0611 18.0564 11.9182Z" fill="var(--fill-0, #9D9D9D)"/>
<path id="Vector_3" d="M1.7493 28.4419C2.61957 29.2989 4.08114 29.2877 4.93819 28.4175L11.4739 21.4965C12.331 20.6262 12.3198 19.1646 11.4495 18.3076C10.5792 17.4505 9.11767 17.4617 8.26063 18.332L1.7249 25.253C0.86786 26.1233 0.879039 27.5848 1.7493 28.4419Z" fill="var(--fill-0, #9D9D9D)"/>
</g>
</svg>
