<svg width="30" height="31" viewBox="0 0 30 31" fill="none" xmlns="http://www.w3.org/2000/svg">
<path d="M1.79859 1.58238C2.66885 0.725336 4.13043 0.736528 4.98747 1.60679L27.7808 25.1356C28.6379 26.0058 28.6267 27.4674 27.7564 28.3244C26.8861 29.1815 25.4246 29.1703 24.5675 28.3L1.77419 4.77126C0.917145 3.901 0.928322 2.43942 1.79859 1.58238Z" fill="#9D9D9D"/>
<path d="M18.0565 11.9184C18.9268 12.7754 20.3884 12.7642 21.2454 11.894L27.7812 4.97292C28.6382 4.10266 28.627 2.64109 27.7567 1.78405C26.8865 0.927005 25.4249 0.938189 24.5679 1.80845L18.0321 8.72948C17.1751 9.59975 17.1863 11.0613 18.0565 11.9184Z" fill="#9D9D9D"/>
<path d="M1.74942 28.4418C2.61968 29.2988 4.08126 29.2877 4.9383 28.4174L11.474 21.4964C12.3311 20.6261 12.3199 19.1645 11.4496 18.3075C10.5794 17.4504 9.11779 17.4616 8.26075 18.3319L1.72502 25.2529C0.867975 26.1232 0.879154 27.5848 1.74942 28.4418Z" fill="#9D9D9D"/>
</svg>
